<svg width="142" height="18" viewBox="0 0 142 18" fill="none" xmlns="http://www.w3.org/2000/svg">
<path d="M0 8.1001L9.7625 18.0001V8.1001H0Z" fill="#F23A1D"/>
<path d="M30.5275 0L23.0714 7.52338L15.6209 0H13.6083V18H17.3955V7.3076L23.0742 13.04L28.7544 7.3076V18H32.5416V0H30.5275Z" fill="#12295D"/>
<path d="M37.275 0V18H54.7292V14.3925H41.1056V10.2872H49.5637V6.67965H41.1056V3.7114H53.9913V0H37.275Z" fill="#12295D"/>
<path d="M73.2064 5.28977C73.2205 5.06688 73.1837 4.84371 73.0989 4.63749C73.0142 4.43127 72.8837 4.24751 72.7177 4.1004C72.2134 3.80738 71.6355 3.66975 71.055 3.70443H62.9321V7.01724H71.055C71.8376 7.01724 72.3765 6.8722 72.7177 6.57196C73.0262 6.2159 73.1995 5.76037 73.2064 5.28687M78.1 17.9913H73.8443L69.1472 10.6317H62.9321V18H59.1666V0H71.1037C72.8667 0 74.2356 0.445286 75.3121 1.28509C76.4874 2.22401 77.0751 3.5589 77.0751 5.28977C77.0818 6.42272 76.7391 7.52957 76.0947 8.45608C75.424 9.38367 74.4832 10.0755 73.4042 10.4345L78.1 17.9913Z" fill="#12295D"/>
<path d="M94.6532 0L86.6981 6.72823V0H82.8334V18H86.6894V11.3226L89.4086 9L96.0822 18H100.583L92.1799 6.62371L99.9889 0H94.6532Z" fill="#12295D"/>
<path d="M104.725 0V18H120.7V14.3925H108.523V0H104.725Z" fill="#12295D"/>
<path d="M124.842 0V18H142V14.3925H128.564V10.2886H136.873V6.6811H128.564V3.7114H141.271V0H124.842Z" fill="#12295D"/>
</svg>
