<?xml version="1.0" encoding="UTF-8"?>
<svg id="Secondary" xmlns="http://www.w3.org/2000/svg" viewBox="0 0 808.32 144">
  <defs>
    <style>
      .cls-1 {
        fill-rule: evenodd;
      }

      .cls-1, .cls-2 {
        fill: #fff;
      }
    </style>
  </defs>
  <path class="cls-2" d="M234.76,97.13c-.48,1.26.17,1.51.34,1.74,1.43,1.04,2.88,1.79,4.34,2.64,7.75,4.12,15.12,5.33,22.78,5.33,15.62,0,25.33-8.33,25.33-21.73v-.25c0-12.39-10.94-16.91-21.22-20.16l-1.34-.42c-7.75-2.52-14.44-4.71-14.44-9.82v-.25c0-4.37,3.92-7.6,9.96-7.6,6.75,0,14.7,2.24,19.85,5.08,0,0,1.51.98,2.07-.48.31-.79,2.91-7.82,3.16-8.58.31-.81-.22-1.43-.76-1.77-5.88-3.59-13.99-6.03-22.39-6.03h-1.57c-14.3,0-24.3,8.67-24.3,21.06v.25c0,13.07,11.03,17.33,21.33,20.28l1.65.5c7.53,2.3,14,4.32,14,9.59v.25c0,4.85-4.23,8.44-11,8.44-2.63,0-11.05-.06-20.12-5.8-1.09-.64-1.74-1.09-2.58-1.63-.45-.28-1.57-.76-2.04.7l-3.08,8.58.03.08Z"/>
  <path class="cls-2" d="M463.51,97.13c-.48,1.26.17,1.51.34,1.74,1.43,1.04,2.88,1.79,4.34,2.64,7.78,4.12,15.12,5.33,22.79,5.33,15.62,0,25.33-8.33,25.33-21.73v-.25c0-12.39-10.94-16.91-21.22-20.16l-1.34-.42c-7.75-2.52-14.44-4.71-14.44-9.82v-.25c0-4.37,3.92-7.6,9.96-7.6,6.72,0,14.7,2.24,19.85,5.08,0,0,1.51.98,2.07-.48.31-.79,2.91-7.82,3.16-8.58.31-.81-.23-1.43-.76-1.77-5.88-3.59-14-6.03-22.39-6.03h-1.57c-14.3,0-24.3,8.67-24.3,21.06v.25c0,13.07,11.03,17.33,21.33,20.28l1.65.5c7.53,2.3,14,4.32,14,9.59v.25c0,4.85-4.23,8.44-11,8.44-2.63,0-11.06-.06-20.13-5.8-1.09-.64-1.74-1.09-2.58-1.63-.28-.17-1.59-.7-2.04.7l-3.08,8.58.03.08Z"/>
  <path class="cls-2" d="M632.78,56.83c-1.29-4.35-3.27-8.16-5.93-11.36-2.66-3.2-6.02-5.78-10.02-7.63-3.97-1.88-8.68-2.8-13.97-2.8s-9.99.95-14,2.8c-3.97,1.85-7.36,4.43-10.02,7.63-2.66,3.2-4.65,7.01-5.94,11.36-1.29,4.32-1.93,9.03-1.93,14.05s.65,9.73,1.93,14.05c1.29,4.35,3.28,8.16,5.94,11.36,2.66,3.2,6.05,5.75,10.02,7.57,4,1.82,8.7,2.75,14,2.75s9.99-.93,13.97-2.75c3.98-1.82,7.36-4.37,10.02-7.57,2.66-3.2,4.65-7.01,5.93-11.36,1.29-4.32,1.93-9.03,1.93-14.05s-.64-9.73-1.93-14.05ZM619.71,70.85c0,7.57-1.4,13.54-4.17,17.78-2.74,4.18-6.91,6.2-12.71,6.2s-9.94-2.02-12.65-6.2c-2.74-4.21-4.11-10.21-4.11-17.78s1.4-13.52,4.11-17.7c2.72-4.15,6.86-6.14,12.65-6.14s9.94,2.02,12.71,6.14c2.77,4.18,4.17,10.12,4.17,17.7Z"/>
  <path class="cls-1" d="M739.89,92.82c-.42-1.26-1.68-.79-1.68-.79-1.9.73-3.92,1.4-6.07,1.74-2.18.34-4.59.5-7.14.5-6.3,0-11.34-1.88-14.92-5.61-3.61-3.73-5.63-9.73-5.6-17.86,0-7.4,1.82-12.96,5.01-17.22,3.16-4.21,8.04-6.39,14.47-6.39,5.37,0,9.49.62,13.8,1.99,0,0,1.01.45,1.51-.9,1.15-3.17,1.99-5.44,3.22-8.92.34-1.01-.5-1.43-.81-1.54-1.68-.67-5.68-1.74-8.7-2.22-2.83-.42-6.1-.65-9.8-.65-5.49,0-10.36.93-14.56,2.8-4.17,1.85-7.7,4.43-10.5,7.63-2.8,3.2-4.92,7.01-6.35,11.36-1.43,4.32-2.13,9.06-2.13,14.08,0,10.85,2.91,19.6,8.68,26.02,5.76,6.45,14.44,9.7,25.75,9.7,6.69,0,13.55-1.35,18.47-3.31,0,0,.95-.45.53-1.54l-3.19-8.86v-.03Z"/>
  <path class="cls-1" d="M806.61,54.36c-1.12-4.18-3.84-8.41-5.65-10.35-2.86-3.06-5.63-5.22-8.4-6.39-3.61-1.54-7.92-2.58-12.65-2.58-5.51,0-10.52.93-14.58,2.83-4.06,1.91-7.47,4.51-10.16,7.77-2.69,3.25-4.7,7.09-5.99,11.5-1.29,4.35-1.93,9.11-1.93,14.11s.67,9.84,1.99,14.13c1.34,4.32,3.5,8.1,6.41,11.25,2.91,3.17,6.63,5.64,11.11,7.38,4.45,1.71,9.83,2.61,16.01,2.61,12.76-.03,19.48-2.89,22.25-4.43.5-.28.95-.76.36-2.1l-2.88-8.1c-.45-1.21-1.65-.79-1.65-.79-3.16,1.18-7.64,3.28-18.14,3.28-6.86,0-11.93-2.05-15.12-5.22-3.25-3.22-4.87-7.99-5.12-14.72h44.14s1.18,0,1.29-1.12c.06-.48,1.51-9.09-1.32-19.04h.03ZM762.69,63.62c.61-4.21,1.76-7.71,3.55-10.43,2.71-4.15,6.83-6.42,12.62-6.42s9.63,2.27,12.37,6.42c1.82,2.72,2.6,6.37,2.91,10.43h-31.49.03Z"/>
  <path class="cls-1" d="M452.98,54.36c-1.12-4.18-3.84-8.41-5.65-10.35-2.85-3.06-5.63-5.22-8.4-6.39-3.61-1.54-7.92-2.58-12.65-2.58-5.52,0-10.53.93-14.58,2.83s-7.47,4.51-10.16,7.77c-2.69,3.25-4.7,7.09-5.99,11.5-1.29,4.35-1.93,9.11-1.93,14.11s.67,9.84,2.02,14.13c1.34,4.32,3.5,8.1,6.38,11.25,2.91,3.17,6.63,5.64,11.11,7.38,4.45,1.71,9.83,2.61,16.04,2.61,12.76-.03,19.48-2.89,22.25-4.43.48-.28.95-.76.36-2.1l-2.88-8.1c-.45-1.21-1.65-.79-1.65-.79-3.16,1.18-7.64,3.28-18.14,3.28-6.83,0-11.93-2.05-15.12-5.22-3.25-3.22-4.87-7.99-5.12-14.72h44.14s1.18,0,1.29-1.12c.06-.48,1.51-9.09-1.32-19.04ZM409.06,63.62c.61-4.21,1.76-7.71,3.55-10.43,2.71-4.15,6.83-6.42,12.62-6.42s9.63,2.27,12.37,6.42c1.82,2.72,2.6,6.37,2.91,10.43h-31.49.03Z"/>
  <path class="cls-2" d="M331.18,61.49c-1.79-.14-4.11-.2-6.89-.2-3.78,0-7.44.48-10.86,1.4-3.44.93-6.55,2.38-9.21,4.29-2.69,1.94-4.84,4.37-6.41,7.29-1.57,2.92-2.35,6.34-2.35,10.21s.67,7.32,2.02,10.1c1.34,2.8,3.28,5.13,5.77,6.93,2.46,1.79,5.48,3.11,8.98,3.9,3.47.79,7.39,1.21,11.7,1.21,4.54,0,9.04-.39,13.41-1.12,4.34-.73,9.66-1.82,11.11-2.16,1.48-.34,3.11-.79,3.11-.79,1.09-.28,1.01-1.46,1.01-1.46v-40.47c0-8.86-2.38-15.45-7.05-19.52-4.65-4.07-11.45-6.11-20.29-6.11-3.3,0-8.65.45-11.84,1.09,0,0-9.63,1.88-13.61,4.99,0,0-.87.53-.39,1.77l3.13,8.41c.39,1.09,1.46.73,1.46.73,0,0,.34-.14.73-.36,8.48-4.63,19.23-4.49,19.23-4.49,4.76,0,8.46.95,10.92,2.86,2.41,1.85,3.64,4.66,3.64,10.54v1.88c-3.78-.56-7.28-.87-7.28-.87l-.03-.06ZM313.61,92.59c-1.74-1.37-1.99-1.74-2.55-2.64-.87-1.35-1.32-3.28-1.32-5.75,0-3.87,1.29-6.67,3.95-8.55,0,0,3.81-3.31,12.82-3.2,6.33.08,11.98,1.01,11.98,1.01v20.11s-5.6,1.21-11.92,1.6c-8.99.53-12.96-2.58-12.93-2.58h-.03Z"/>
  <path class="cls-1" d="M687.33,38.69c.33-1.01-.36-1.49-.67-1.6-.76-.28-4.51-1.07-7.39-1.26-5.54-.34-8.62.59-11.39,1.82-2.74,1.23-5.77,3.23-7.47,5.52v-5.38c0-.73-.53-1.35-1.26-1.35h-11.31c-.73,0-1.26.59-1.26,1.35v65.99c0,.73.59,1.35,1.34,1.35h11.62c.73,0,1.34-.59,1.34-1.35v-32.95c0-4.43.5-8.83,1.45-11.61.95-2.75,2.27-4.94,3.86-6.51,1.6-1.57,3.44-2.66,5.46-3.28,2.04-.62,4.31-.84,5.94-.84,2.29,0,4.84.59,4.84.59.84.08,1.32-.42,1.62-1.21.76-2.02,2.91-8.08,3.33-9.28h-.06Z"/>
  <path class="cls-1" d="M578.45,8.12c-1.4-.45-2.69-.73-4.37-1.04-1.71-.31-3.72-.48-5.99-.48-7.98,0-14.28,2.27-18.7,6.73-4.39,4.43-7.39,11.19-8.87,20.05l-.53,3h-10.02s-1.23-.06-1.48,1.29l-1.65,9.2c-.11.87.25,1.43,1.45,1.43h9.74l-9.91,55.36c-.78,4.46-1.65,8.13-2.63,10.91-.98,2.75-1.93,4.8-3.08,6.28-1.12,1.43-2.21,2.5-4.03,3.14-1.51.5-3.27.76-5.21.76-1.06,0-2.49-.17-3.55-.39-1.04-.2-1.6-.45-2.38-.79,0,0-1.15-.45-1.6.7-.36.93-2.97,8.1-3.28,9-.31.87.14,1.57.67,1.77,1.29.48,2.27.76,4.03,1.18,2.46.59,4.53.62,6.47.62,4.06,0,7.78-.56,10.83-1.68,3.11-1.12,5.79-3.06,8.17-5.69,2.58-2.86,4.2-5.83,5.74-9.9,1.54-4.04,2.83-9.03,3.89-14.86l9.94-56.39h14.56s1.23.06,1.48-1.29l1.65-9.2c.11-.87-.25-1.43-1.45-1.43h-14.11c.08-.31.7-5.3,2.32-9.98.7-1.99,1.99-3.62,3.11-4.71,1.09-1.09,2.32-1.85,3.7-2.3,1.4-.45,3-.67,4.73-.67,1.32,0,2.63.17,3.64.36,1.37.28,1.9.45,2.27.56,1.43.45,1.62,0,1.9-.67l3.39-9.28c.34-1.01-.5-1.43-.81-1.54l-.03-.03Z"/>
  <path class="cls-1" d="M381.19,103.8c0,.73-.53,1.35-1.26,1.35h-11.7c-.73,0-1.26-.59-1.26-1.35V9.38c0-.73.53-1.35,1.26-1.35h11.7c.73,0,1.26.59,1.26,1.35v94.42Z"/>
  <path class="cls-2" d="M86.3,15.71c6.69-6.91,16-11.2,26.29-11.2,13.68,0,25.63,7.57,31.99,18.81,5.53-2.45,11.65-3.82,18.08-3.82,24.68,0,44.7,20.03,44.7,44.74s-20.01,44.74-44.7,44.74c-3.02,0-5.96-.3-8.81-.87-5.6,9.91-16.27,16.61-28.52,16.61-5.13,0-9.98-1.17-14.29-3.27-5.68,13.25-18.9,22.54-34.32,22.54s-29.74-10.08-34.99-24.21c-2.29.48-4.68.73-7.12.73C15.5,120.52,0,104.99,0,85.83c0-12.84,6.96-24.05,17.3-30.05-2.13-4.87-3.31-10.23-3.31-15.87C14,17.87,32.03,0,54.28,0c13.06,0,24.66,6.16,32.02,15.71Z"/>
</svg>