<?xml version="1.0" encoding="UTF-8"?><svg id="Secondary" xmlns="http://www.w3.org/2000/svg" viewBox="0 0 808.32 144"><defs><style>.cls-1,.cls-2{fill:#001e5b;}.cls-3{fill:#00b3ff;}.cls-2{fill-rule:evenodd;}</style></defs><path class="cls-1" d="M234.756,97.135c-.476,1.262.168,1.514.336,1.739,1.428,1.038,2.883,1.795,4.339,2.636,7.752,4.122,15.116,5.328,22.784,5.328,15.619,0,25.332-8.329,25.332-21.733v-.252c0-12.395-10.944-16.91-21.216-20.163l-1.344-.42c-7.754-2.524-14.443-4.711-14.443-9.815v-.252c0-4.375,3.919-7.6,9.965-7.6,6.746,0,14.695,2.243,19.846,5.076,0,0,1.512.982,2.071-.477.307-.785,2.911-7.824,3.163-8.581.307-.813-.223-1.43-.756-1.767-5.878-3.589-13.994-6.029-22.392-6.029h-1.567c-14.304,0-24.297,8.665-24.297,21.06v.252c0,13.068,11.028,17.331,21.328,20.275l1.651.505c7.531,2.299,13.997,4.319,13.997,9.591v.252c0,4.851-4.226,8.441-11.002,8.441-2.63,0-11.054-.056-20.124-5.805-1.092-.645-1.735-1.094-2.576-1.626-.448-.28-1.567-.757-2.043.701l-3.079,8.581.028.084Z"/><path class="cls-1" d="M463.514,97.135c-.478,1.262.168,1.514.336,1.739,1.426,1.038,2.882,1.795,4.337,2.636,7.783,4.122,15.115,5.328,22.786,5.328,15.619,0,25.332-8.329,25.332-21.733v-.252c0-12.395-10.944-16.91-21.216-20.163l-1.344-.42c-7.754-2.524-14.443-4.711-14.443-9.815v-.252c0-4.375,3.917-7.6,9.965-7.6,6.718,0,14.695,2.243,19.846,5.076,0,0,1.51.982,2.071-.477.307-.785,2.911-7.824,3.163-8.581.307-.813-.226-1.43-.756-1.767-5.878-3.589-13.997-6.029-22.394-6.029h-1.567c-14.304,0-24.295,8.665-24.295,21.06v.252c0,13.068,11.028,17.331,21.329,20.275l1.651.505c7.529,2.299,13.997,4.319,13.997,9.591v.252c0,4.851-4.229,8.441-11.002,8.441-2.63,0-11.057-.056-20.126-5.805-1.092-.645-1.735-1.094-2.575-1.626-.278-.168-1.594-.701-2.042.701l-3.079,8.581.029.084Z"/><path class="cls-1" d="M632.779,56.833c-1.286-4.347-3.274-8.16-5.933-11.358-2.659-3.197-6.019-5.777-10.022-7.628-3.974-1.879-8.676-2.804-13.966-2.804s-9.994.953-13.997,2.804c-3.974,1.851-7.361,4.431-10.02,7.628-2.659,3.197-4.646,7.011-5.935,11.358-1.286,4.319-1.932,9.03-1.932,14.049s.646,9.731,1.932,14.05c1.289,4.347,3.276,8.16,5.935,11.358,2.659,3.197,6.046,5.749,10.02,7.572,4.003,1.823,8.705,2.748,13.997,2.748s9.991-.925,13.966-2.748c3.977-1.823,7.363-4.375,10.022-7.572,2.659-3.197,4.646-7.011,5.933-11.358,1.289-4.319,1.932-9.03,1.932-14.05s-.643-9.731-1.932-14.049ZM619.709,70.854c0,7.572-1.402,13.545-4.171,17.779-2.743,4.178-6.914,6.198-12.708,6.198s-9.936-2.019-12.653-6.198c-2.743-4.206-4.114-10.208-4.114-17.779s1.399-13.517,4.114-17.695c2.717-4.15,6.859-6.141,12.653-6.141s9.936,2.019,12.708,6.141c2.77,4.178,4.171,10.123,4.171,17.695Z"/><path class="cls-2" d="M739.886,92.818c-.42-1.262-1.678-.785-1.678-.785-1.903.729-3.919,1.402-6.074,1.739-2.184.336-4.591.505-7.138.505-6.3,0-11.338-1.879-14.921-5.609-3.61-3.73-5.626-9.731-5.597-17.863,0-7.403,1.819-12.956,5.009-17.218,3.163-4.206,8.035-6.394,14.472-6.394,5.374,0,9.49.617,13.8,1.991,0,0,1.008.449,1.512-.897,1.147-3.169,1.987-5.44,3.218-8.918.336-1.009-.504-1.43-.811-1.542-1.68-.673-5.683-1.739-8.705-2.215-2.827-.421-6.103-.645-9.797-.645-5.486,0-10.358.925-14.556,2.804-4.171,1.851-7.699,4.431-10.498,7.628-2.798,3.197-4.925,7.011-6.353,11.357-1.428,4.319-2.129,9.058-2.129,14.078,0,10.853,2.911,19.602,8.678,26.024,5.765,6.45,14.443,9.703,25.752,9.703,6.689,0,13.548-1.346,18.473-3.309,0,0,.953-.449.533-1.542l-3.192-8.862v-.028Z"/><path class="cls-2" d="M806.609,54.365c-1.121-4.178-3.835-8.413-5.654-10.348-2.856-3.057-5.626-5.216-8.398-6.394-3.61-1.542-7.922-2.58-12.653-2.58-5.513,0-10.524.925-14.582,2.832-4.058,1.907-7.474,4.515-10.162,7.768-2.686,3.253-4.702,7.095-5.99,11.498-1.286,4.347-1.93,9.114-1.93,14.106s.672,9.843,1.987,14.134c1.344,4.319,3.499,8.104,6.41,11.245,2.911,3.169,6.634,5.637,11.112,7.375,4.45,1.711,9.826,2.608,16.01,2.608,12.763-.028,19.481-2.888,22.253-4.431.504-.28.953-.757.365-2.103l-2.885-8.105c-.446-1.206-1.651-.785-1.651-.785-3.163,1.178-7.642,3.281-18.137,3.281-6.859,0-11.926-2.047-15.115-5.216-3.247-3.225-4.872-7.992-5.124-14.723h44.143s1.176,0,1.286-1.122c.058-.477,1.512-9.086-1.315-19.041h.029ZM762.691,63.619c.614-4.206,1.762-7.712,3.554-10.432,2.714-4.15,6.83-6.422,12.624-6.422s9.629,2.272,12.372,6.422c1.819,2.72,2.604,6.366,2.911,10.432h-31.49.029Z"/><path class="cls-2" d="M452.976,54.365c-1.118-4.178-3.835-8.413-5.654-10.348-2.854-3.057-5.626-5.216-8.398-6.394-3.61-1.542-7.92-2.58-12.65-2.58-5.515,0-10.526.925-14.585,2.832s-7.474,4.515-10.159,7.768c-2.688,3.253-4.704,7.095-5.99,11.498-1.289,4.347-1.932,9.114-1.932,14.106s.672,9.843,2.016,14.134c1.342,4.319,3.499,8.104,6.382,11.245,2.911,3.169,6.634,5.637,11.112,7.375,4.45,1.711,9.826,2.608,16.039,2.608,12.763-.028,19.481-2.888,22.253-4.431.475-.28.95-.757.365-2.103l-2.885-8.105c-.446-1.206-1.651-.785-1.651-.785-3.163,1.178-7.642,3.281-18.137,3.281-6.83,0-11.926-2.047-15.115-5.216-3.247-3.225-4.872-7.992-5.124-14.723h44.143s1.176,0,1.286-1.122c.058-.477,1.512-9.086-1.315-19.041ZM409.058,63.619c.614-4.206,1.764-7.712,3.554-10.432,2.714-4.15,6.83-6.422,12.624-6.422s9.629,2.272,12.372,6.422c1.819,2.72,2.604,6.366,2.911,10.432h-31.49.029Z"/><path class="cls-1" d="M331.183,61.486c-1.79-.14-4.114-.196-6.886-.196-3.778,0-7.445.477-10.86,1.402-3.444.925-6.55,2.384-9.209,4.29-2.688,1.935-4.843,4.375-6.41,7.291-1.567,2.916-2.352,6.338-2.352,10.208s.672,7.319,2.016,10.095c1.344,2.804,3.276,5.132,5.767,6.927,2.462,1.795,5.484,3.113,8.983,3.898,3.473.785,7.39,1.206,11.7,1.206,4.536,0,9.043-.393,13.409-1.122,4.339-.729,9.658-1.823,11.112-2.159,1.483-.336,3.108-.785,3.108-.785,1.092-.281,1.008-1.458,1.008-1.458v-40.466c0-8.862-2.381-15.452-7.054-19.518-4.646-4.066-11.45-6.114-20.294-6.114-3.302,0-8.65.449-11.839,1.094,0,0-9.631,1.879-13.606,4.992,0,0-.866.533-.391,1.767l3.134,8.413c.394,1.094,1.457.729,1.457.729,0,0,.336-.14.727-.365,8.482-4.627,19.229-4.487,19.229-4.487,4.759,0,8.455.953,10.918,2.86,2.407,1.851,3.638,4.655,3.638,10.544v1.879c-3.778-.561-7.277-.869-7.277-.869l-.029-.056ZM313.606,92.586c-1.735-1.374-1.987-1.739-2.549-2.636-.866-1.346-1.315-3.281-1.315-5.749,0-3.87,1.289-6.674,3.948-8.553,0,0,3.806-3.309,12.818-3.197,6.326.084,11.981,1.01,11.981,1.01v20.107s-5.597,1.206-11.923,1.598c-8.986.533-12.96-2.58-12.934-2.58h-.026Z"/><path class="cls-2" d="M687.326,38.692c.334-1.01-.365-1.486-.672-1.599-.756-.28-4.507-1.066-7.39-1.262-5.544-.336-8.623.589-11.393,1.823-2.743,1.234-5.767,3.225-7.474,5.525v-5.384c0-.729-.533-1.346-1.26-1.346h-11.309c-.727,0-1.26.589-1.26,1.346v65.985c0,.729.588,1.346,1.344,1.346h11.616c.727,0,1.344-.589,1.344-1.346v-32.951c0-4.431.504-8.834,1.454-11.61.953-2.748,2.268-4.936,3.864-6.506,1.596-1.57,3.444-2.664,5.458-3.281,2.045-.617,4.31-.841,5.935-.841,2.294,0,4.841.589,4.841.589.84.084,1.318-.421,1.625-1.206.756-2.019,2.911-8.076,3.331-9.282h-.055Z"/><path class="cls-2" d="M578.448,8.121c-1.399-.449-2.688-.729-4.366-1.038-1.709-.308-3.722-.477-5.99-.477-7.978,0-14.275,2.271-18.698,6.73-4.394,4.431-7.39,11.189-8.873,20.051l-.533,3h-10.02s-1.231-.056-1.483,1.29l-1.651,9.198c-.113.869.252,1.43,1.454,1.43h9.742l-9.91,55.357c-.782,4.459-1.651,8.133-2.63,10.909-.979,2.748-1.932,4.795-3.079,6.282-1.121,1.43-2.213,2.496-4.032,3.141-1.51.505-3.274.757-5.206.757-1.063,0-2.491-.168-3.554-.393-1.037-.196-1.596-.449-2.378-.785,0,0-1.15-.449-1.596.701-.365.925-2.969,8.104-3.276,9.002-.307.87.139,1.571.672,1.767,1.289.477,2.268.757,4.032,1.178,2.462.589,4.534.617,6.466.617,4.058,0,7.781-.561,10.831-1.683,3.108-1.122,5.794-3.057,8.174-5.693,2.575-2.86,4.198-5.833,5.738-9.899,1.538-4.038,2.827-9.03,3.89-14.863l9.936-56.394h14.556s1.231.056,1.483-1.29l1.651-9.198c.113-.869-.252-1.43-1.454-1.43h-14.107c.084-.308.698-5.3,2.323-9.983.698-1.991,1.987-3.617,3.106-4.711,1.092-1.094,2.323-1.851,3.696-2.3,1.399-.449,2.995-.673,4.73-.673,1.315,0,2.63.168,3.638.365,1.37.28,1.903.449,2.268.561,1.428.449,1.622,0,1.903-.673l3.386-9.282c.336-1.01-.504-1.43-.811-1.542l-.029-.028Z"/><path class="cls-2" d="M381.187,103.802c0,.729-.533,1.346-1.26,1.346h-11.7c-.727,0-1.26-.589-1.26-1.346V9.381c0-.729.533-1.346,1.26-1.346h11.7c.727,0,1.26.589,1.26,1.346v94.421Z"/><path class="cls-3" d="M86.298,15.708c6.689-6.909,15.999-11.203,26.292-11.203,13.683,0,25.629,7.574,31.991,18.814,5.531-2.449,11.649-3.817,18.079-3.817,24.685,0,44.699,20.031,44.699,44.742s-20.015,44.742-44.699,44.742c-3.017,0-5.958-.302-8.807-.869-5.6,9.91-16.274,16.607-28.525,16.607-5.127,0-9.981-1.172-14.293-3.265-5.676,13.251-18.902,22.541-34.323,22.541s-29.736-10.076-34.985-24.212c-2.293.484-4.678.733-7.116.733C15.497,120.522,0,104.988,0,85.825c0-12.843,6.964-24.053,17.302-30.055-2.133-4.868-3.314-10.227-3.314-15.866C14.003,17.87,32.029,0,54.276,0c13.059,0,24.662,6.161,32.022,15.708Z"/></svg>